<mxfile host="app.diagrams.net" modified="2021-02-02T07:56:20.421Z" agent="5.0 (Windows NT 10.0; Win64; x64) AppleWebKit/537.36 (KHTML, like Gecko) Chrome/88.0.4324.104 Safari/537.36" etag="a8NYbEAKBtG09MOf3nIg" version="14.2.9" type="github">
  <diagram id="yGj9I8lR1U0CFMxcBAfA" name="Page-1">
    <mxGraphModel dx="782" dy="738" grid="1" gridSize="10" guides="1" tooltips="1" connect="1" arrows="1" fold="1" page="1" pageScale="1" pageWidth="827" pageHeight="1169" math="0" shadow="0">
      <root>
        <mxCell id="0" />
        <mxCell id="1" parent="0" />
        <mxCell id="xeuyCQ0-0__o0exJz9tu-1" value="" style="verticalLabelPosition=bottom;verticalAlign=top;html=1;shadow=0;dashed=0;strokeWidth=1;shape=mxgraph.android.phone2;strokeColor=#c0c0c0;" vertex="1" parent="1">
          <mxGeometry x="260" y="80" width="270" height="490" as="geometry" />
        </mxCell>
        <mxCell id="xeuyCQ0-0__o0exJz9tu-21" value="" style="strokeWidth=1;shadow=0;dashed=0;align=center;html=1;shape=mxgraph.mockup.rrect;rSize=10;fillColor=#f5f5f5;strokeColor=#666666;fontColor=#333333;" vertex="1" parent="1">
          <mxGeometry x="270" y="120" width="250" height="410" as="geometry" />
        </mxCell>
        <mxCell id="xeuyCQ0-0__o0exJz9tu-22" value="&lt;font style=&quot;font-size: 11px&quot;&gt;&lt;b style=&quot;color: rgb(0 , 0 , 0)&quot;&gt;Parking Ludovisi&lt;br&gt;&lt;/b&gt;&lt;span style=&quot;color: rgb(0 , 0 , 0) ; font-weight: 400&quot;&gt;numero civico:34&lt;/span&gt;&lt;br style=&quot;color: rgb(0 , 0 , 0) ; font-weight: 400&quot;&gt;&lt;span style=&quot;color: rgb(0 , 0 , 0) ; font-weight: 400&quot;&gt;distanza:5,1 km&lt;/span&gt;&lt;/font&gt;" style="strokeWidth=1;shadow=0;dashed=0;align=center;html=1;shape=mxgraph.mockup.rrect;rSize=0;fontSize=17;fontStyle=1;resizeWidth=1;verticalAlign=top;" vertex="1" parent="xeuyCQ0-0__o0exJz9tu-21">
          <mxGeometry width="250.00000000000003" height="140" relative="1" as="geometry">
            <mxPoint y="110" as="offset" />
          </mxGeometry>
        </mxCell>
        <mxCell id="xeuyCQ0-0__o0exJz9tu-23" value="&lt;b style=&quot;text-align: left ; color: rgb(0 , 0 , 0) ; font-family: &amp;#34;helvetica&amp;#34; ; font-size: 11px&quot;&gt;MuoviAmo Pinciano&lt;/b&gt;&lt;br&gt;&lt;span style=&quot;color: rgb(0 , 0 , 0) ; font-family: &amp;#34;helvetica&amp;#34; ; font-size: 11px ; font-style: normal ; font-weight: 400 ; letter-spacing: normal ; text-align: center ; text-indent: 0px ; text-transform: none ; word-spacing: 0px ; background-color: rgb(248 , 249 , 250) ; display: inline ; float: none&quot;&gt;numero civico:30&lt;/span&gt;&lt;br style=&quot;color: rgb(0 , 0 , 0) ; font-family: &amp;#34;helvetica&amp;#34; ; font-size: 11px ; font-style: normal ; font-weight: 400 ; letter-spacing: normal ; text-align: center ; text-indent: 0px ; text-transform: none ; word-spacing: 0px ; background-color: rgb(248 , 249 , 250)&quot;&gt;&lt;span style=&quot;color: rgb(0 , 0 , 0) ; font-family: &amp;#34;helvetica&amp;#34; ; font-size: 11px ; font-style: normal ; font-weight: 400 ; letter-spacing: normal ; text-align: center ; text-indent: 0px ; text-transform: none ; word-spacing: 0px ; background-color: rgb(248 , 249 , 250) ; display: inline ; float: none&quot;&gt;distanza: 4,5km&lt;/span&gt;" style="strokeWidth=1;shadow=0;dashed=0;align=center;html=1;shape=mxgraph.mockup.rrect;rSize=0;fontSize=17;fontStyle=1;resizeWidth=1;verticalAlign=top;" vertex="1" parent="xeuyCQ0-0__o0exJz9tu-21">
          <mxGeometry width="250" height="160" relative="1" as="geometry">
            <mxPoint y="250" as="offset" />
          </mxGeometry>
        </mxCell>
        <mxCell id="xeuyCQ0-0__o0exJz9tu-25" value="&lt;h2 class=&quot;qrShPb kno-ecr-pt PZPZlf mfMhoc PPT5v hNKfZe&quot; style=&quot;color: rgba(0 , 0 , 0 , 0.87) ; line-height: 1.34 ; margin: 0px 40px 0px 0px ; overflow: visible ; font-weight: normal ; position: relative ; transform-origin: left top ; overflow-wrap: break-word ; padding-bottom: 2px ; text-align: left ; background-color: rgb(255 , 255 , 255) ; font-family: &amp;#34;google sans&amp;#34; , &amp;#34;arial&amp;#34; , sans-serif &amp;#34;important&amp;#34; ; font-size: 12px&quot;&gt;&lt;br&gt;&lt;/h2&gt;" style="strokeWidth=1;shadow=0;dashed=0;align=center;html=1;shape=mxgraph.mockup.topButton;rSize=10;fontSize=17;fontStyle=1;resizeWidth=1;" vertex="1" parent="xeuyCQ0-0__o0exJz9tu-21">
          <mxGeometry width="250.00000000000003" height="110" relative="1" as="geometry" />
        </mxCell>
        <mxCell id="xeuyCQ0-0__o0exJz9tu-26" value="&lt;b&gt;Parcheggio Saba Villa Borghese&lt;br&gt;&lt;/b&gt;numero civico:33&lt;br&gt;distanza:5km" style="text;html=1;strokeColor=none;fillColor=none;align=center;verticalAlign=middle;whiteSpace=wrap;rounded=0;fontSize=11;" vertex="1" parent="xeuyCQ0-0__o0exJz9tu-21">
          <mxGeometry y="11.714285714285715" width="236.84210526315792" height="46.85714285714286" as="geometry" />
        </mxCell>
        <mxCell id="xeuyCQ0-0__o0exJz9tu-37" value="condividi" style="strokeWidth=1;shadow=0;dashed=0;align=center;html=1;shape=mxgraph.mockup.buttons.button;strokeColor=#666666;fontColor=#333333;mainText=;buttonStyle=round;fontSize=17;fontStyle=1;fillColor=#f5f5f5;whiteSpace=wrap;" vertex="1" parent="xeuyCQ0-0__o0exJz9tu-21">
          <mxGeometry x="129.99999999999997" y="70" width="110" height="30" as="geometry" />
        </mxCell>
        <mxCell id="xeuyCQ0-0__o0exJz9tu-36" value="condividi" style="strokeWidth=1;shadow=0;dashed=0;align=center;html=1;shape=mxgraph.mockup.buttons.button;strokeColor=#666666;fontColor=#333333;mainText=;buttonStyle=round;fontSize=17;fontStyle=1;fillColor=#f5f5f5;whiteSpace=wrap;" vertex="1" parent="xeuyCQ0-0__o0exJz9tu-21">
          <mxGeometry x="130" y="210" width="110" height="30" as="geometry" />
        </mxCell>
        <mxCell id="xeuyCQ0-0__o0exJz9tu-35" value="condividi" style="strokeWidth=1;shadow=0;dashed=0;align=center;html=1;shape=mxgraph.mockup.buttons.button;strokeColor=#666666;fontColor=#333333;mainText=;buttonStyle=round;fontSize=17;fontStyle=1;fillColor=#f5f5f5;whiteSpace=wrap;" vertex="1" parent="xeuyCQ0-0__o0exJz9tu-21">
          <mxGeometry x="130" y="350" width="110" height="30" as="geometry" />
        </mxCell>
      </root>
    </mxGraphModel>
  </diagram>
</mxfile>
